<?xml version="1.0" standalone="no"?>
<!DOCTYPE svg PUBLIC "-//W3C//DTD SVG 20010904//EN"
 "http://www.w3.org/TR/2001/REC-SVG-20010904/DTD/svg10.dtd">
<svg version="1.0" xmlns="http://www.w3.org/2000/svg"
 width="1536.000000pt" height="1024.000000pt" viewBox="0 0 1536.000000 1024.000000"
 preserveAspectRatio="xMidYMid meet">

<g transform="translate(0.000000,1024.000000) scale(0.100000,-0.100000)"
fill="#000000" stroke="none">
<path d="M0 5120 l0 -5120 7680 0 7680 0 0 5120 0 5120 -7680 0 -7680 0 0
-5120z m8926 3655 c28 -8 62 -28 78 -44 24 -25 27 -35 22 -65 -7 -38 -48 -78
-72 -69 -7 3 -31 14 -51 24 -78 40 -173 15 -215 -56 -14 -26 -58 -249 -58
-300 0 -13 20 -15 125 -15 l125 0 6 -25 c8 -34 -2 -84 -23 -107 -14 -15 -33
-18 -134 -18 -103 0 -118 -2 -123 -17 -3 -10 -12 -83 -21 -163 -23 -200 -49
-316 -83 -365 -39 -57 -100 -85 -182 -85 -82 0 -101 12 -107 71 -7 65 11 83
77 80 89 -4 103 22 130 246 11 92 22 183 25 201 l6 32 -54 0 c-74 0 -91 15
-85 73 8 67 19 77 93 77 l62 0 17 108 c41 269 90 364 212 412 60 23 161 26
230 5z m649 -20 c37 -36 33 -50 -37 -138 -285 -362 -289 -906 -8 -1298 64 -90
72 -117 40 -149 -44 -44 -101 -16 -171 83 -147 209 -222 446 -222 702 0 144
11 220 48 351 49 170 180 394 265 452 42 28 55 28 85 -3z m1103 -51 c64 -72
143 -215 181 -329 43 -130 61 -247 61 -405 0 -274 -60 -475 -210 -698 -83
-124 -121 -146 -176 -99 -35 30 -30 52 32 136 97 134 165 294 195 461 18 102
15 335 -5 428 -36 164 -98 308 -180 420 -25 34 -46 72 -46 84 0 33 29 58 66
58 27 0 41 -10 82 -56z m-3543 6 c3 -5 13 -35 20 -65 35 -133 104 -213 216
-250 54 -18 64 -25 64 -44 0 -19 -11 -27 -63 -46 -124 -45 -190 -114 -213
-223 -15 -70 -26 -92 -44 -92 -13 0 -21 21 -41 105 -26 112 -110 196 -227 226
-74 18 -70 50 8 64 116 21 211 126 231 255 10 68 31 98 49 70z m-2495 -50 c28
-28 26 -45 -24 -151 -90 -191 -120 -327 -120 -539 1 -208 36 -364 120 -533 25
-50 46 -104 46 -119 2 -64 -71 -90 -118 -43 -51 51 -140 274 -170 430 -25 126
-25 397 0 515 40 190 124 401 173 440 33 25 67 26 93 0z m1419 3 c45 -31 130
-240 167 -414 28 -130 26 -428 -5 -568 -32 -152 -114 -354 -161 -401 -43 -43
-129 -11 -117 42 3 13 26 68 51 124 152 331 148 772 -10 1086 -38 76 -41 94
-18 126 18 26 60 29 93 5z m-1881 -39 c18 -12 22 -25 22 -66 0 -88 1 -88 -247
-88 l-213 0 0 -185 0 -186 145 2 c101 0 150 -3 160 -11 18 -15 20 -111 3 -128
-8 -8 -58 -12 -160 -12 l-148 0 0 -185 0 -185 208 0 c248 0 252 -1 252 -84 0
-38 -5 -58 -17 -67 -13 -11 -75 -14 -294 -15 -266 -2 -279 -1 -296 18 -17 19
-18 56 -18 600 0 562 1 580 19 594 30 22 552 21 584 -2z m880 -60 c29 -20 58
-66 145 -229 38 -71 74 -136 79 -143 12 -14 66 69 158 245 29 57 62 110 72
120 27 25 129 30 151 8 9 -9 17 -22 17 -28 0 -7 -65 -120 -145 -251 l-144
-239 24 -41 c68 -119 282 -503 288 -519 4 -11 -1 -25 -14 -38 -17 -17 -28 -19
-62 -14 -80 12 -96 24 -132 94 -18 36 -71 135 -118 219 l-84 154 -21 -34 c-11
-18 -58 -103 -105 -188 -133 -242 -132 -240 -238 -240 -73 0 -69 17 45 221 57
101 129 226 160 277 36 60 55 100 51 112 -3 10 -69 123 -145 251 -77 128 -140
237 -140 244 0 23 26 35 80 35 35 0 64 -6 78 -16z m4858 -323 c49 -22 73 -60
105 -158 13 -40 25 -73 28 -73 4 0 19 21 36 47 50 79 155 180 200 192 56 15
87 14 114 -5 20 -14 22 -22 17 -57 -11 -66 -21 -77 -72 -77 -54 0 -64 -9 -166
-152 l-70 -98 31 -92 c17 -51 40 -108 51 -126 l21 -34 71 4 c63 3 71 1 78 -17
12 -33 -12 -87 -50 -113 -30 -20 -44 -23 -99 -20 -62 4 -66 6 -106 50 -25 28
-52 75 -71 123 l-30 77 -34 -53 c-42 -65 -135 -166 -172 -185 -15 -8 -49 -14
-76 -14 -62 0 -85 21 -76 71 11 59 30 79 73 79 34 0 45 6 84 50 24 27 66 81
93 120 l49 72 -39 111 c-21 62 -46 120 -54 130 -10 11 -30 17 -62 17 -70 0
-87 29 -54 91 29 56 107 73 180 40z m-2144 -778 c112 -67 282 -167 378 -223
655 -385 1633 -973 1666 -1002 18 -16 46 -55 61 -86 l28 -57 0 -1315 0 -1315
-28 -57 c-34 -70 -57 -88 -267 -215 -91 -55 -419 -254 -730 -443 -1324 -804
-1284 -780 -1352 -791 -99 -16 -65 -35 -1238 673 -305 184 -676 408 -825 497
-301 181 -353 224 -380 313 -13 45 -15 214 -15 1338 0 1455 -5 1354 78 1439
49 50 101 84 423 273 107 64 429 255 715 425 874 521 1066 635 1108 655 32 14
57 18 108 15 65 -4 73 -8 270 -124z m3686 -272 c7 -4 22 -48 33 -97 56 -259
172 -396 380 -448 36 -9 77 -16 90 -16 37 0 62 -22 57 -51 -3 -22 -13 -27
-109 -51 -126 -31 -187 -60 -255 -122 -82 -73 -127 -175 -159 -356 -15 -87
-32 -117 -59 -107 -21 8 -30 31 -61 170 -59 261 -167 378 -394 425 -139 28
-137 73 3 93 94 13 142 30 213 77 110 71 157 163 199 382 19 103 31 121 62
101z m-6183 -241 c26 -29 24 -79 -4 -102 -29 -22 -78 -23 -103 -1 -23 20 -24
80 -1 105 23 25 84 24 108 -2z m-1297 -247 c6 -10 13 -38 16 -63 25 -170 83
-309 166 -402 68 -76 176 -131 315 -159 55 -11 105 -25 112 -31 7 -6 13 -23
13 -39 0 -36 -12 -41 -135 -63 -116 -21 -218 -70 -289 -140 -83 -81 -130 -186
-166 -374 -22 -111 -31 -132 -61 -132 -25 0 -34 21 -53 122 -37 197 -88 310
-175 390 -72 66 -172 113 -286 134 -98 18 -135 35 -135 62 0 35 20 45 131 68
290 60 414 202 470 539 14 84 24 105 49 105 11 0 23 -8 28 -17z m6232 -24 c0
-5 -4 -8 -9 -5 -4 3 -18 -3 -30 -13 -24 -21 -23 -57 3 -76 18 -14 59 -8 50 6
-3 5 0 8 8 7 20 -5 22 41 2 63 -10 11 -12 19 -5 19 6 0 17 -11 23 -25 27 -59
-35 -115 -87 -81 -33 22 -35 78 -3 100 26 18 48 21 48 5z m4 -25 c9 -3 16 -14
15 -23 0 -10 -2 -11 -6 -3 -2 6 -11 12 -18 12 -8 0 -17 5 -20 10 -7 11 6 13
29 4z m426 -876 c0 -38 42 -125 77 -162 35 -36 122 -86 150 -86 29 0 24 -50
-6 -50 -29 -1 -105 -40 -139 -73 -40 -38 -68 -89 -77 -142 -11 -60 -23 -79
-41 -64 -8 6 -14 22 -14 35 0 13 -10 49 -21 81 -27 72 -90 137 -151 155 -72
20 -71 45 3 67 62 19 133 94 153 160 9 30 16 63 16 73 0 11 5 29 11 40 11 21
12 21 25 3 8 -10 14 -27 14 -37z m1478 -244 c39 -27 19 -94 -28 -94 -47 0 -67
67 -28 94 12 9 25 16 28 16 3 0 16 -7 28 -16z m-7598 -564 c39 -39 14 -100
-41 -100 -35 0 -59 24 -59 57 0 57 61 82 100 43z m7087 -119 c117 -54 144
-236 48 -334 -87 -89 -252 -71 -319 36 -24 39 -28 56 -28 113 0 55 5 74 29
112 53 86 171 118 270 73z m-8007 -111 c11 -11 20 -31 20 -45 0 -14 -9 -34
-20 -45 -11 -11 -31 -20 -45 -20 -30 0 -65 32 -65 60 0 12 11 32 25 45 29 30
58 32 85 5z m6808 -189 c7 -46 -46 -73 -79 -40 -26 26 -21 60 11 76 30 15 63
-2 68 -36z m-6252 -278 c60 -278 115 -347 319 -402 52 -14 60 -20 63 -42 3
-25 -1 -27 -65 -43 -181 -46 -272 -149 -304 -346 -20 -121 -51 -115 -79 15
-34 155 -85 237 -177 287 -43 24 -72 33 -166 53 -23 5 -28 10 -25 32 3 24 11
28 83 47 85 23 156 59 192 98 35 38 70 118 88 203 9 44 18 90 21 103 7 33 42
29 50 -5z m6867 -238 c162 -78 258 -253 372 -675 21 -74 47 -173 60 -220 72
-263 174 -507 281 -667 30 -46 91 -121 135 -167 43 -46 79 -90 79 -99 0 -27
-40 -67 -68 -67 -39 1 -65 18 -144 96 -205 203 -308 432 -497 1104 -93 331
-146 450 -234 525 -62 53 -98 61 -152 35 -122 -59 -204 -240 -351 -770 -31
-113 -76 -261 -101 -330 -148 -412 -381 -717 -683 -896 l-65 -39 1151 -3
c1097 -2 1152 -3 1167 -20 9 -10 20 -32 23 -50 5 -26 1 -36 -24 -62 l-31 -30
-1584 2 c-1543 3 -1585 4 -1606 22 -15 14 -21 31 -21 62 0 66 13 71 225 77
265 8 413 41 607 137 345 171 544 415 701 856 36 100 59 176 142 474 104 368
179 536 287 640 69 68 118 88 216 89 48 1 76 -5 115 -24z m-7213 -1254 c14
-27 13 -37 -6 -55 -40 -40 -101 3 -75 53 15 28 66 29 81 2z m946 -81 c52 -210
126 -291 314 -346 70 -20 75 -24 75 -50 0 -26 -4 -29 -72 -45 -182 -45 -268
-134 -308 -317 -22 -99 -31 -122 -49 -122 -15 0 -22 18 -51 138 -41 174 -152
284 -308 307 -98 15 -87 60 20 86 183 45 259 133 299 343 18 93 20 98 42 94
12 -2 23 -28 38 -88z m1209 -552 c2 -7 9 -31 14 -54 16 -59 69 -116 130 -138
59 -21 70 -49 24 -61 -61 -14 -110 -54 -137 -107 -14 -28 -26 -62 -26 -75 0
-45 -27 -23 -43 37 -21 73 -61 121 -127 149 -55 24 -57 35 -9 45 41 8 95 49
114 86 8 16 20 52 26 80 10 48 25 64 34 38z m2133 -614 c32 -22 30 -69 -4 -91
-24 -15 -29 -15 -53 -2 -32 18 -40 63 -15 90 21 23 42 24 72 3z"/>
<path d="M6985 7126 c-143 -84 -375 -220 -515 -302 -400 -235 -1039 -618
-1040 -624 0 -8 532 10 890 31 135 8 168 12 181 27 70 74 765 1025 747 1021
-2 0 -120 -69 -263 -153z"/>
<path d="M7450 7232 c-447 -604 -719 -965 -732 -970 -44 -18 92 -22 763 -22
417 0 759 2 759 5 0 3 -38 56 -84 118 -100 135 -552 754 -619 850 -27 37 -49
67 -50 67 -1 -1 -18 -22 -37 -48z"/>
<path d="M7720 7273 c0 -14 97 -152 290 -413 159 -216 453 -614 454 -616 3 -5
983 -45 1024 -42 l54 3 -304 180 c-360 213 -1001 590 -1288 757 -113 66 -211
124 -217 130 -8 6 -13 6 -13 1z"/>
<path d="M6246 5262 c-198 -444 -374 -839 -392 -879 l-33 -72 37 -22 c20 -13
260 -163 532 -334 823 -518 1092 -686 1105 -691 6 -3 124 67 261 154 137 87
348 221 469 297 236 148 640 405 820 522 63 41 109 77 107 85 -2 7 -50 114
-107 238 -57 124 -157 344 -222 490 -66 146 -198 435 -294 643 l-174 377 -875
0 -875 0 -359 -808z m1851 220 c132 -50 226 -183 268 -377 22 -101 30 -302 16
-426 -27 -252 -106 -401 -248 -471 -55 -27 -80 -33 -154 -36 -125 -6 -208 20
-284 89 -130 119 -178 276 -179 579 -1 209 16 305 74 427 61 126 158 209 274
233 61 13 174 5 233 -18z m-1000 4 c29 -8 68 -23 86 -35 50 -31 119 -109 147
-166 22 -44 25 -63 25 -161 0 -110 0 -111 -42 -195 -50 -101 -158 -231 -342
-414 -72 -71 -131 -132 -131 -135 0 -3 109 -6 241 -7 165 -2 246 -6 255 -14
19 -15 19 -119 0 -145 -14 -18 -29 -19 -293 -19 -153 -1 -313 1 -356 5 -95 6
-107 18 -107 99 l0 54 144 146 c171 174 324 346 370 416 50 75 69 141 64 228
-4 91 -33 136 -103 162 -114 44 -239 -19 -260 -132 -10 -55 -20 -63 -84 -63
-79 0 -101 17 -101 79 0 111 113 252 233 290 74 24 181 26 254 7z"/>
<path d="M7915 5330 c-150 -32 -215 -188 -215 -512 1 -263 53 -408 165 -459
82 -38 181 -15 242 54 66 75 93 197 93 422 0 259 -40 393 -142 468 -31 23 -99
36 -143 27z"/>
<path d="M6185 6049 c-104 -4 -343 -12 -530 -19 -187 -7 -342 -14 -344 -16 -4
-4 -3 -6 159 -604 65 -239 146 -540 180 -667 35 -128 66 -233 69 -233 3 0 13
17 22 38 9 20 92 206 184 412 92 206 214 483 270 615 57 132 126 292 154 355
55 123 57 131 39 128 -7 0 -98 -4 -203 -9z"/>
<path d="M8560 6052 c0 -6 74 -175 164 -374 90 -200 179 -399 199 -443 19 -44
61 -136 92 -205 31 -69 93 -206 137 -305 44 -99 85 -189 91 -200 9 -17 15 -4
38 80 28 104 253 933 334 1233 26 95 45 175 43 177 -2 3 -182 11 -399 20 -217
8 -463 18 -546 21 -110 5 -153 4 -153 -4z"/>
<path d="M9728 5645 c-3 -11 -22 -81 -42 -155 -80 -304 -247 -933 -280 -1054
l-35 -129 182 -315 182 -316 3 497 c3 699 -2 1496 -10 1472z"/>
<path d="M5241 4661 c-1 -547 1 -992 3 -990 1 2 36 63 76 134 41 72 121 211
178 310 l104 180 -87 330 c-48 181 -104 393 -125 470 -21 77 -62 230 -90 340
-28 110 -53 205 -55 210 -2 6 -4 -437 -4 -984z"/>
<path d="M5684 4089 c-15 -24 -108 -179 -206 -343 -146 -243 -177 -301 -166
-311 17 -15 235 -150 1249 -768 386 -235 449 -272 449 -263 0 3 -94 128 -208
278 -114 150 -235 309 -268 353 -33 44 -177 235 -320 425 -143 190 -311 415
-373 500 -63 85 -117 159 -122 164 -4 4 -20 -11 -35 -35z"/>
<path d="M9230 4083 c-45 -63 -509 -683 -815 -1088 -307 -406 -438 -585 -432
-591 3 -4 139 77 622 372 162 99 285 175 880 542 94 58 175 110 182 116 9 8
-28 79 -160 301 -95 160 -186 314 -203 342 -16 29 -32 53 -35 53 -3 0 -21 -21
-39 -47z"/>
<path d="M6050 3963 c0 -8 543 -734 754 -1009 292 -380 577 -737 596 -749 6
-4 10 162 10 447 l0 453 -288 179 c-287 180 -906 575 -1014 648 -32 21 -58 35
-58 31z"/>
<path d="M8810 3888 c-52 -33 -239 -153 -415 -266 -176 -112 -365 -233 -420
-269 -55 -35 -166 -107 -247 -160 l-148 -95 0 -454 c0 -267 4 -454 9 -454 13
0 42 38 682 888 605 805 655 872 642 872 -4 0 -51 -28 -103 -62z"/>
<path d="M5177 6942 c-21 -23 -22 -66 -1 -86 36 -37 104 -7 104 46 0 51 -69
78 -103 40z m82 -22 c4 0 8 -7 8 -15 0 -8 -4 -15 -9 -15 -4 0 -8 7 -8 15 0 8
-4 15 -10 15 -5 0 -6 8 -2 18 6 16 7 16 10 0 2 -10 7 -18 11 -18z m-46 -6 c16
-16 23 -34 19 -46 -3 -14 -7 -16 -12 -7 -5 7 -6 19 -2 27 4 11 1 13 -9 7 -8
-4 -11 -5 -7 -1 9 11 -14 36 -26 28 -5 -3 -6 0 -2 6 10 16 12 16 39 -14z m-23
-35 c0 -5 -4 -9 -10 -9 -5 0 -10 7 -10 16 0 8 5 12 10 9 6 -3 10 -10 10 -16z
m75 -9 c-3 -5 -10 -10 -16 -10 -5 0 -9 5 -9 10 0 6 7 10 16 10 8 0 12 -4 9
-10z"/>
<path d="M12056 5515 c-11 -28 -7 -44 14 -55 31 -16 62 4 58 38 -2 22 -9 28
-34 30 -22 2 -33 -2 -38 -13z"/>
<path d="M4448 4969 c-21 -12 -24 -59 -6 -77 19 -19 66 -15 78 7 14 28 13 38
-10 61 -22 22 -37 24 -62 9z m72 -43 c0 -6 -5 -3 -11 7 -6 9 -15 14 -21 11 -7
-4 -8 -2 -4 5 9 14 36 -3 36 -23z"/>
<path d="M11465 4715 c-46 -46 -19 -118 44 -118 68 0 98 76 47 120 -35 30 -61
29 -91 -2z"/>
<path d="M3533 4740 c-29 -12 -33 -74 -5 -88 50 -25 104 37 67 78 -20 22 -29
23 -62 10z m37 -10 c0 -5 -5 -10 -11 -10 -5 0 -7 5 -4 10 3 6 8 10 11 10 2 0
4 -4 4 -10z m-21 -53 c8 -10 7 -14 -2 -14 -8 0 -14 6 -14 14 0 7 1 13 2 13 2
0 8 -6 14 -13z m36 -7 c3 -5 1 -10 -4 -10 -6 0 -11 5 -11 10 0 6 2 10 4 10 3
0 8 -4 11 -10z"/>
<path d="M10333 4569 c-5 -5 -8 -21 -5 -35 6 -35 59 -35 68 0 3 14 3 30 -1 35
-8 14 -48 14 -62 0z m37 -9 c0 -5 -4 -10 -10 -10 -5 0 -10 5 -10 10 0 6 5 10
10 10 6 0 10 -4 10 -10z m10 -24 c0 -3 -4 -8 -10 -11 -5 -3 -10 -1 -10 4 0 6
5 11 10 11 6 0 10 -2 10 -4z"/>
<path d="M3741 2772 c-12 -23 4 -52 30 -52 23 0 42 39 27 58 -15 18 -46 15
-57 -6z m46 -24 c-3 -8 -6 -5 -6 6 -1 11 2 17 5 13 3 -3 4 -12 1 -19z"/>
<path d="M8038 1529 c-18 -10 -24 -45 -10 -65 14 -21 45 -25 63 -8 25 23 24
49 -3 68 -26 19 -27 19 -50 5z"/>
</g>
</svg>
